# xmcd
#
# Track frame offsets:
#	150
#	11850
#	23690
#	38647
#	52130
#	63167
#	78902
#	94577
#	109420
#	122582
#	139990
#	158437
#	173942
#	188555
#	201977
#	217690
#	235609
#	250002
#	262930
#
# Disc length: 3718 seconds
#
# Revision: 1
# Processed by: cddbd v1.5.2PL0 Copyright (c) Steve Scherf et al.
# Submitted via: EasyCDDAExtractor 5.0.6
#
DISCID=f10e8413
DTITLE=Various Artist - un Recuerdo de Amor
DYEAR=1999
DGENRE=
TTITLE0=Virginia Lopez - Ya tu Veras
TTITLE1=Pedro Vargaz - Piel Canela
TTITLE2=Los 4 Hnos Silva - Cuando tu me quieras
TTITLE3=Marco Antonio Muñiz - Y hablame
TTITLE4=Virginia Lopez - Fichas Negras
TTITLE5=Pedro Vargaz - Quiza, Quiza Quiza
TTITLE6=Guadalupe Pineda - Cuando vuelva a tu lado
TTITLE7=Jose Jose - como fue
TTITLE8=Virginia Lopez - total
TTITLE9=Francisco Xavier - mi ultimo fracaso
TTITLE10=Lucero - La duda
TTITLE11=Carlos Cuevas - Ansiedad
TTITLE12=Francisco Xavier - Amor mio
TTITLE13=Guadalupe Pineda - Puedo Fallar
TTITLE14=jose Jose - Te me Olvidas
TTITLE15=Carlos Cuevas - Lagrimas NEgras
TTITLE16=Dulce - Cuano ya no me Quieras
TTITLE17=Jose Jose - Regalame esta Noche
TTITLE18=Carlos Cuevas - Por Nuestra Cobardia
EXTD=
EXTT0=
EXTT1=
EXTT2=
EXTT3=
EXTT4=
EXTT5=
EXTT6=
EXTT7=
EXTT8=
EXTT9=
EXTT10=
EXTT11=
EXTT12=
EXTT13=
EXTT14=
EXTT15=
EXTT16=
EXTT17=
EXTT18=
PLAYORDER=
